<svg width="48" height="37" viewBox="0 0 48 37" fill="none" xmlns="http://www.w3.org/2000/svg">
<path d="M40.1324 3.58472C37.1108 2.19332 33.8706 1.1682 30.4828 0.581076C30.4211 0.569745 30.3594 0.598063 30.3277 0.654699C29.9109 1.39852 29.4493 2.36889 29.1261 3.1316C25.4823 2.58413 21.8572 2.58413 18.288 3.1316C17.9647 2.35194 17.4864 1.39852 17.0678 0.654699C17.036 0.599952 16.9744 0.571634 16.9127 0.581076C13.5267 1.16633 10.2865 2.19145 7.26308 3.58472C7.23691 3.59604 7.21447 3.61494 7.19958 3.63947C1.05361 12.8543 -0.630025 21.8426 0.195911 30.7195C0.199649 30.7629 0.22394 30.8044 0.257576 30.8308C4.31251 33.8194 8.24041 35.6337 12.0954 36.8362C12.1571 36.8551 12.2224 36.8325 12.2617 36.7815C13.1736 35.5317 13.9865 34.214 14.6834 32.8282C14.7245 32.7471 14.6853 32.6508 14.6012 32.6187C13.3119 32.1278 12.0841 31.5294 10.9032 30.8497C10.8098 30.795 10.8023 30.6609 10.8882 30.5967C11.1367 30.4098 11.3853 30.2154 11.6226 30.019C11.6656 29.9832 11.7254 29.9756 11.7759 29.9983C19.5344 33.5532 27.9339 33.5532 35.6009 29.9983C35.6514 29.9737 35.7112 29.9813 35.756 30.0171C35.9934 30.2135 36.2419 30.4098 36.4923 30.5967C36.5782 30.6609 36.5726 30.795 36.4792 30.8497C35.2982 31.5426 34.0705 32.1278 32.7793 32.6168C32.6952 32.6489 32.6578 32.7471 32.699 32.8282C33.4109 34.212 34.2237 35.5298 35.1188 36.7796C35.1562 36.8325 35.2234 36.8551 35.2851 36.8362C39.1588 35.6337 43.0867 33.8194 47.1416 30.8308C47.1771 30.8044 47.1995 30.7648 47.2033 30.7214C48.1918 20.4587 45.5476 11.5441 40.194 3.64134C40.1809 3.61494 40.1585 3.59604 40.1324 3.58472ZM15.842 25.3144C13.5062 25.3144 11.5815 23.1622 11.5815 20.5191C11.5815 17.8761 13.4688 15.7239 15.842 15.7239C18.2338 15.7239 20.1399 17.895 20.1025 20.5191C20.1025 23.1622 18.2151 25.3144 15.842 25.3144ZM31.5946 25.3144C29.2588 25.3144 27.3341 23.1622 27.3341 20.5191C27.3341 17.8761 29.2214 15.7239 31.5946 15.7239C33.9864 15.7239 35.8924 17.895 35.8551 20.5191C35.8551 23.1622 33.9864 25.3144 31.5946 25.3144Z" fill="white"/>
</svg>
